<svg width="128" height="128" viewBox="0 0 128 128" fill="none" xmlns="http://www.w3.org/2000/svg">
  <defs>
    <linearGradient id="ipcraft-grad" x1="0" y1="0" x2="128" y2="128" gradientUnits="userSpaceOnUse">
      <stop stop-color="#FF512F"/>
      <stop offset="1" stop-color="#DD2476"/>
    </linearGradient>
    <mask id="ipcraft-cut" maskUnits="userSpaceOnUse" x="0" y="0" width="128" height="128">
      <rect width="128" height="128" fill="#ffffff"/>
      <rect x="39" y="49" width="38" height="10" rx="5" fill="#000000"/>
      <rect x="39" y="69" width="20" height="10" rx="5" fill="#000000"/>
      <rect x="65" y="69" width="12" height="10" rx="5" fill="#000000"/>
      <circle cx="107.5" cy="64" r="4" fill="#000000"/>
    </mask>
  </defs>
  <g fill="url(#ipcraft-grad)" mask="url(#ipcraft-cut)">
    <rect x="24" y="30" width="68" height="68" rx="13"/>
    <rect x="12" y="42.5" width="18" height="9" rx="4.5"/>
    <rect x="12" y="59.5" width="18" height="9" rx="4.5"/>
    <rect x="12" y="76.5" width="18" height="9" rx="4.5"/>
    <rect x="36.5" y="18" width="9" height="18" rx="4.5"/>
    <rect x="53.5" y="18" width="9" height="18" rx="4.5"/>
    <rect x="70.5" y="18" width="9" height="18" rx="4.5"/>
    <rect x="36.5" y="92" width="9" height="18" rx="4.5"/>
    <rect x="53.5" y="92" width="9" height="18" rx="4.5"/>
    <rect x="70.5" y="92" width="9" height="18" rx="4.5"/>
    <rect x="86" y="59.5" width="15" height="9"/>
    <circle cx="107.5" cy="64" r="9"/>
  </g>
</svg>
