<svg width="128" height="128" viewBox="0 0 128 128" fill="none" xmlns="http://www.w3.org/2000/svg">
  <defs>
    <linearGradient id="icon-gpt54-grad" x1="18" y1="14" x2="110" y2="114" gradientUnits="userSpaceOnUse">
      <stop stop-color="#FF512F" />
      <stop offset="1" stop-color="#DD2476" />
    </linearGradient>
    <radialGradient id="icon-gpt54-sheen" cx="0" cy="0" r="1" gradientUnits="userSpaceOnUse" gradientTransform="translate(46 28) rotate(40) scale(90 78)">
      <stop stop-color="white" stop-opacity="0.24" />
      <stop offset="1" stop-color="white" stop-opacity="0" />
    </radialGradient>
    <mask id="icon-gpt54-mask">
      <rect width="128" height="128" fill="black" />
      <g fill="white">
        <rect x="24" y="24" width="80" height="80" rx="20" />
        <rect x="34" y="12" width="22" height="12" rx="6" />
        <rect x="72" y="104" width="24" height="12" rx="6" />
        <rect x="12" y="42" width="16" height="14" rx="6" />
        <rect x="12" y="72" width="16" height="14" rx="6" />
        <rect x="100" y="46" width="16" height="36" rx="6" />
      </g>
      <g fill="black">
        <rect x="38" y="38" width="18" height="34" rx="6" />
        <rect x="62" y="38" width="28" height="12" rx="6" />
        <rect x="62" y="56" width="28" height="12" rx="6" />
        <rect x="38" y="78" width="52" height="12" rx="6" />
      </g>
    </mask>
  </defs>

  <rect width="128" height="128" fill="url(#icon-gpt54-grad)" mask="url(#icon-gpt54-mask)" />
  <rect width="128" height="128" fill="url(#icon-gpt54-sheen)" mask="url(#icon-gpt54-mask)" />

  <g stroke="white" stroke-opacity="0.16" stroke-width="3">
    <rect x="24" y="24" width="80" height="80" rx="20" />
    <rect x="34" y="12" width="22" height="12" rx="6" />
    <rect x="72" y="104" width="24" height="12" rx="6" />
    <rect x="12" y="42" width="16" height="14" rx="6" />
    <rect x="12" y="72" width="16" height="14" rx="6" />
    <rect x="100" y="46" width="16" height="36" rx="6" />
  </g>
</svg>
